<?xml version="1.0" encoding="UTF-8" standalone="no"?>
<!-- Created with Inkscape (http://www.inkscape.org/) -->

<svg
   xmlns:dc="http://purl.org/dc/elements/1.1/"
   xmlns:cc="http://creativecommons.org/ns#"
   xmlns:rdf="http://www.w3.org/1999/02/22-rdf-syntax-ns#"
   xmlns:svg="http://www.w3.org/2000/svg"
   xmlns="http://www.w3.org/2000/svg"
   xmlns:sodipodi="http://sodipodi.sourceforge.net/DTD/sodipodi-0.dtd"
   xmlns:inkscape="http://www.inkscape.org/namespaces/inkscape"
   width="210mm"
   height="297mm"
   viewBox="0 0 210 297"
   version="1.1"
   id="svg8"
   inkscape:version="0.92.3 (2405546, 2018-03-11)"
   sodipodi:docname="logo_iniciales.svg">
  <defs
     id="defs2" />
  <sodipodi:namedview
     id="base"
     pagecolor="#ffffff"
     bordercolor="#666666"
     borderopacity="1.0"
     inkscape:pageopacity="0.0"
     inkscape:pageshadow="2"
     inkscape:zoom="0.35"
     inkscape:cx="400"
     inkscape:cy="560"
     inkscape:document-units="mm"
     inkscape:current-layer="layer1"
     showgrid="false"
     inkscape:window-width="1920"
     inkscape:window-height="1001"
     inkscape:window-x="-9"
     inkscape:window-y="-9"
     inkscape:window-maximized="1" />
  <metadata
     id="metadata5">
    <rdf:RDF>
      <cc:Work
         rdf:about="">
        <dc:format>image/svg+xml</dc:format>
        <dc:type
           rdf:resource="http://purl.org/dc/dcmitype/StillImage" />
        <dc:title></dc:title>
      </cc:Work>
    </rdf:RDF>
  </metadata>
  <g
     inkscape:label="Capa 1"
     inkscape:groupmode="layer"
     id="layer1">
    <flowRoot
       xml:space="preserve"
       id="flowRoot10"
       style="fill:black;fill-opacity:1;stroke:none;font-family:sans-serif;font-style:normal;font-weight:normal;font-size:40px;line-height:1.25;letter-spacing:0px;word-spacing:0px"><flowRegion
         id="flowRegion12"><rect
           id="rect14"
           width="420"
           height="422.85715"
           x="85.714287"
           y="379.66254" /></flowRegion><flowPara
         id="flowPara16"></flowPara></flowRoot>    <path
       id="path24"
       d="m 73.978555,115.94587 c 0.664175,2.53521 1.544637,5.00545 2.202558,7.54181 0.483494,1.87503 0.573664,3.81054 0.631767,5.73609 -0.144701,2.09278 -1.263761,3.92666 -2.477667,5.57993 -1.220928,1.58643 -2.573605,3.07968 -4.039097,4.44335 -4.14577,3.48509 -8.76653,7.08865 -14.150173,8.0933 -2.133225,0.27966 -4.287153,0.26385 -6.433865,0.27067 -1.901497,0.0725 -3.698859,-0.7621 -5.355577,-1.62184 -2.251205,-1.31119 -4.27546,-2.96566 -6.239293,-4.66641 -2.084856,-1.74962 -3.711334,-3.9807 -5.27803,-6.19087 -1.139719,-1.6293 -1.370005,-3.53453 -1.508022,-5.46196 -0.08918,-1.98314 -0.07486,-3.96993 -0.05928,-5.95461 -0.04764,-2.77786 0.06558,-5.52955 0.549979,-8.26671 0.271616,-1.07376 0.270465,-1.38597 0.847336,-2.36199 2.054082,-3.47535 12.010728,-7.9697 12.657195,-8.34602 1.385943,-0.53725 2.926207,-0.53579 4.335722,-0.96334 0.713158,-0.21633 1.371365,-0.58437 2.064737,-0.85754 1.966812,-0.82951 4.072731,-1.03485 6.178685,-1.1661 2.309333,-0.0884 4.621096,-0.0681 6.931692,-0.0697 1.777642,-2.6e-4 3.555285,7.9e-4 5.332928,10e-4 1.699278,0.005 3.398552,0.006 5.097838,0.004 2.571393,0.0195 5.142825,0.0201 7.714271,0.0279 2.836548,0.008 5.673077,-0.01 8.509611,-0.0131 2.41087,0.10642 4.78227,-0.071 7.15341,-0.49973 3.90279,-0.63006 7.62841,-1.92515 11.27956,-3.399917 2.13592,-0.825018 4.24514,-1.72235 6.27922,-2.776386 0.60794,-0.315029 2.39497,-1.328521 1.80135,-0.987264 -8.8444,5.084421 -10.14722,6.057537 -6.08242,3.250464 3.8822,-2.857846 7.32276,-6.247254 10.77746,-9.593818 5.06459,-4.66903 10.2454,-9.183364 14.84165,-14.32597 0.61048,-0.733824 1.21477,-1.472843 1.83144,-2.201476 1.3159,-1.554821 2.16639,-2.424483 3.36887,-4.084418 1.55874,-2.151713 2.80795,-4.483894 4.05943,-6.819535 1.12334,-2.308426 2.26286,-4.608523 3.3734,-6.923185 0,0 10.11996,-4.596048 10.11996,-4.596048 v 0 c -1.13707,2.346084 -2.33395,4.660982 -3.46195,7.011276 -1.25315,2.371664 -2.49056,4.777147 -4.00664,6.996469 -1.66613,2.438961 -1.49468,1.915986 -3.37651,4.126609 -0.62476,0.733909 -1.21648,1.495314 -1.82472,2.242973 -4.57608,5.195279 -9.72035,9.767208 -14.84682,14.406655 -3.37121,3.390326 -6.78711,6.761311 -10.57175,9.693791 -6.36469,4.776917 -13.55119,8.46751 -20.93957,11.38396 -3.734803,1.45596 -7.569991,2.67341 -11.540916,3.29802 -2.415606,0.35032 -4.834419,0.44491 -7.274891,0.36579 -2.824527,-0.003 -5.649044,-0.0213 -8.473585,-0.013 -2.597155,0.008 -5.1943,0.009 -7.791405,0.028 -1.701684,-0.002 -3.403364,-0.001 -5.10504,-0.001 -1.766083,-0.006 -3.532135,-0.0164 -5.298202,-0.0254 -2.295295,-0.006 -4.594016,-0.0187 -6.884829,0.14609 -2.056913,0.19759 -4.068585,0.58616 -5.976275,1.41411 -2.08061,0.7692 -4.316482,0.99148 -6.318676,1.96247 20.40555,-11.970994 8.23501,-5.47116 6.277662,-3.2412 -0.778777,0.88724 -0.660135,0.91396 -1.019595,2.03167 -0.568084,2.67141 -0.75003,5.32761 -0.602269,8.05925 -0.0051,1.96219 -0.04341,3.92508 0.02524,5.88667 0.09191,1.72464 0.207499,3.4502 1.207587,4.9262 1.486366,2.15091 3.011035,4.33381 5.05927,5.99007 1.937716,1.61597 3.929901,3.20111 6.170782,4.38182 1.598771,0.74107 3.237092,1.35806 5.035211,1.21181 2.102829,-0.0225 4.235415,-0.0208 6.29177,-0.51476 3.624239,-1.25922 8.738891,-4.80956 -7.267625,4.50857 -1.090996,0.63513 3.174995,-1.82085 2.116833,-1.57985 1.585519,-1.1759 2.881593,-2.73125 4.141111,-4.23836 1.219816,-1.40808 2.313133,-3.04942 2.78874,-4.8649 -0.02961,-1.85316 -0.08142,-3.71656 -0.489792,-5.53297 -0.592931,-2.52074 -1.429051,-4.9745 -2.19102,-7.44705 0,0 9.831229,-5.41449 9.831229,-5.41449 z"
       inkscape:connector-curvature="0"
       style="stroke-width:0.26458332;fill:#ff0000" />
    <path
       id="path26"
       d="m 120.38747,92.833419 c 2.4332,2.101591 4.52158,4.507542 6.38933,7.11345 1.57594,2.421051 2.76084,4.982381 3.31679,7.816441 0.64446,2.54726 0.80243,5.16972 1.07396,7.77178 0.25503,3.00387 0.64774,5.9732 1.2221,8.93148 0.66266,3.0402 0.85891,6.14902 1.00862,9.24831 0.10709,3.26867 0.0822,6.5397 0.0652,9.80954 0.0689,3.69815 -0.003,7.38428 -0.41411,11.06099 -0.55836,3.16584 -1.54237,6.21619 -2.76636,9.17964 -1.23789,3.13582 -3.11439,5.9252 -5.09452,8.62934 -2.35778,3.20699 -5.47112,5.67437 -8.68723,7.96342 -1.99355,1.51095 -4.09094,2.89021 -6.26778,4.12333 -11.293422,6.39744 -7.08003,4.73383 -12.650443,6.80316 -3.425084,1.12221 -6.99964,1.42414 -10.574647,1.59078 -2.518267,0.0729 -5.01894,0.0281 -7.517344,0.36166 -0.928479,0.13586 -1.861643,0.23094 -2.795559,0.31891 0,0 9.010846,-6.68629 9.010846,-6.68629 v 0 c 0.923351,-0.0996 1.845659,-0.20717 2.767679,-0.31845 2.489764,-0.24411 4.989415,-0.11575 7.486047,-0.25354 3.515127,-0.21544 7.033341,-0.60615 10.349241,-1.87533 4.51856,-1.94141 1.93603,-0.9119 -6.443462,4.04356 -0.495562,0.29306 1.002842,-0.56597 1.499132,-0.85779 1.67104,-0.98255 3.36263,-1.95486 4.85581,-3.20155 3.21304,-2.20402 6.34946,-4.52552 8.77415,-7.61638 1.99183,-2.61687 3.90241,-5.30312 5.17023,-8.35975 1.20252,-2.90399 2.32062,-5.83245 2.94742,-8.9273 0.44872,-3.63722 0.55076,-7.2819 0.47156,-10.94525 -0.0138,-3.24789 -0.006,-6.49648 -0.0918,-9.74353 -0.10562,-3.05107 -0.28839,-6.10915 -0.91625,-9.10501 -0.59311,-2.98411 -1.04615,-5.96487 -1.28012,-9.00183 -0.31846,-2.56831 -0.40964,-5.1713 -1.05648,-7.69153 -0.47498,-2.6881 -1.54193,-5.12475 -3.03223,-7.41675 -1.82342,-2.53573 -3.88805,-4.89042 -6.33841,-6.844975 0,0 9.51862,-5.920536 9.51862,-5.920536 z"
       inkscape:connector-curvature="0"
       style="stroke-width:0.26458332;fill:#ff0000" />
    <path
       id="path28"
       d="m 107.37278,128.00586 c 3.45396,-0.30723 6.92429,-0.3947 10.38904,-0.50806 2.5036,-0.0654 5.0079,-0.10393 7.51236,-0.10551 2.31186,0.0107 4.6237,0.0125 6.93558,0.007 1.43921,-0.0712 2.99104,-0.0454 4.4029,-0.39411 0.52731,-0.13022 1.47907,-0.62109 1.94989,-0.84775 3.3916,-1.96913 9.01102,-5.07266 -6.69244,3.85426 -0.30573,0.1738 0.60062,-0.36632 0.89386,-0.56045 0.41359,-0.27381 1.25611,-0.88587 1.66559,-1.18055 1.5215,-1.21665 2.65691,-2.84438 3.95773,-4.28921 1.30104,-1.42199 2.57707,-2.82826 3.50061,-4.52686 0.85866,-1.30648 1.35374,-2.77616 1.94999,-4.20576 0.19269,-0.52425 0.43183,-1.0534 0.51646,-1.61103 0.0137,-0.09 -0.0785,-0.23792 0.005,-0.27318 10.53041,-4.42198 9.84256,-7.65256 10.35528,-3.01493 0.30598,2.8275 0.75667,5.62905 1.03165,8.4606 0.38762,2.843 0.77114,5.6865 1.0229,8.54518 0.50734,2.0369 1.10789,4.02452 1.37253,6.11234 0,0 -9.89836,5.1986 -9.89836,5.1986 v 0 c -0.25597,-2.1046 -0.82668,-4.11877 -1.40237,-6.15552 -0.19,-2.86696 -0.52542,-5.71925 -0.94716,-8.56134 -0.26587,-2.81105 -0.7595,-5.58316 -1.09085,-8.38569 -0.73619,-4.86637 -0.44671,-0.75983 9.93383,-6.71675 0.0504,-0.0289 -0.13427,-0.0578 -0.17363,-0.0151 -0.39783,0.43177 -0.17046,1.23757 -0.51171,1.70648 -0.59578,1.45843 -1.06324,2.97859 -1.92449,4.31308 -0.41349,0.79864 -0.76362,1.61951 -1.30253,2.34624 -0.72242,0.97422 -0.58562,0.64138 -1.40128,1.57109 -0.24863,0.2834 -0.47315,0.58708 -0.70972,0.88063 -1.35205,1.45709 -2.61439,2.9776 -3.85785,4.51753 -0.85931,0.57791 -1.6485,1.29638 -2.54073,1.8204 -4.08235,2.39763 -8.21294,5.02939 -12.5371,7.09828 -2.12488,0.75998 -4.37538,0.92692 -6.62477,0.89236 -2.31369,-0.008 -4.62738,-0.0118 -6.94107,2.7e-4 -2.47228,0.008 -4.94489,0.005 -7.41645,0.0746 -3.48357,0.0959 -6.97438,0.20322 -10.433941,0.65289 0,0 9.010771,-6.70029 9.010771,-6.70029 z"
       inkscape:connector-curvature="0"
       style="stroke-width:0.26458332;fill:#ff0000" />
    <path
       id="path30"
       d="m 143.78008,156.82869 c 2.14295,1.39546 4.51194,2.2628 7.00515,2.7575 2.09112,0.35373 3.48918,0.54177 5.39463,-0.48492 -2.97994,1.68606 -5.94413,3.40027 -8.93982,5.0582 -0.24232,0.13411 0.46139,-0.30816 0.67517,-0.48422 0.81717,-0.673 1.27421,-1.47797 1.6435,-2.45013 0.45102,-1.57748 0.42775,-3.23482 0.44001,-4.86109 0.0659,-1.37377 -0.0156,-2.63586 -1.39087,-3.21499 -1.35595,-0.41434 -2.66966,-0.23201 -3.97079,0.26081 -3.32265,2.0588 -8.31099,4.45683 7.47146,-4.21172 0.25196,-0.13839 -0.44189,0.36795 -0.65643,0.55928 -0.20359,0.18156 -0.97725,0.91722 -1.1924,1.12106 -1.27896,1.12159 -1.83882,2.53007 -2.16196,4.15556 -0.24125,1.55535 -0.23693,3.1336 -0.24029,4.70333 0.004,1.82389 -0.002,3.64768 0.005,5.4716 0.15643,1.69398 1.13321,2.97517 2.09336,4.29754 0.87315,1.19342 2.1015,1.52397 3.49509,1.68507 1.79611,0.11665 3.59865,0.0865 5.39754,0.0747 6.14521,0.0856 5.65433,-1.95348 -6.56624,6.75435 -0.1958,0.0903 -0.38705,0.19121 -0.58739,0.27095 -1.05642,0.42046 -2.97755,1.48199 -2.24619,1.06458 8.72844,-4.98159 11.69445,-6.83384 7.99455,-4.5394 -6.40947,3.88487 -24.23055,14.02578 -4.66259,2.77259 -6.14818,3.92641 -21.05414,11.67577 -2.37862,1.3768 0.32446,-0.17893 -0.60421,0.42912 -0.90183,0.64983 -0.71236,0.52827 -0.98457,0.75514 -1.66452,1.29819 -1.54273,1.30265 -1.84366,3.20989 -2.20809,5.07948 -0.46517,1.89686 -0.61754,3.84164 -0.71453,5.78575 0.007,1.75204 -0.29458,3.55706 0.16619,5.26967 0.38438,1.50852 1.53085,2.1867 2.8388,2.84232 1.21733,0.88926 2.57674,1.30295 4.04983,1.48991 1.56971,0.13467 3.14789,0.11558 4.72195,0.11334 1.82916,-0.0132 3.63705,0.16707 5.38922,-0.42924 3.36573,-1.93336 8.44319,-4.67981 -7.21591,4.10786 -0.27426,0.15391 0.52152,-0.35173 0.77882,-0.53258 0.83418,-0.58631 0.56241,-0.37808 1.28665,-1.06434 1.17599,-1.45386 1.65564,-3.23383 1.9412,-5.04381 0.15909,-1.5741 0.26696,-3.17152 0.12883,-4.75033 -0.27939,-1.28067 -1.39402,-1.77642 -2.5505,-2.08917 -1.6104,-0.22433 -3.25985,-0.4992 -4.78926,0.15969 3.02747,-1.68657 6.03298,-3.41319 9.08241,-5.05971 0.19765,-0.10673 -0.36612,0.26625 -0.51548,0.43403 -0.65186,0.73224 -0.78884,1.7575 -0.92573,2.68385 -0.0532,0.806 -0.30371,1.53453 -0.62325,2.26475 0,0 -10.29261,4.54036 -10.29261,4.54036 v 0 c 0.49421,-0.54733 0.78607,-1.05964 0.84839,-1.82195 0.56057,-6.33531 3.9106,-6.29654 11.3345,-9.88826 1.73188,-0.25172 3.5077,-0.0834 5.19233,0.38557 1.49303,0.61702 2.75692,1.53766 3.18722,3.17824 0.22858,1.65754 0.10732,3.34116 -0.009,5.00575 -0.23421,1.95902 -0.66287,3.88677 -1.68414,5.60357 -0.55041,0.84945 -1.07967,1.37147 -1.95826,1.89467 -3.32971,1.9828 -7.79367,5.42044 -12.12847,6.80482 -1.83778,0.3059 -3.69842,0.18724 -5.5557,0.21025 -1.61838,-0.007 -3.24827,0.0159 -4.84957,-0.25508 -1.533,-0.32769 -2.9321,-0.92604 -4.23785,-1.80324 -1.50261,-0.86472 -2.82012,-1.83796 -3.30557,-3.59253 -0.5826,-1.8255 -0.326,-3.72533 -0.31519,-5.61748 0.089,-1.98948 0.17805,-3.99725 0.62835,-5.94397 0.45189,-1.98642 0.55862,-4.11888 1.92112,-5.75931 3.87743,-3.50009 8.28365,-5.31799 12.96563,-8.18005 2.91414,-1.7814 -5.91061,3.42447 -8.86222,5.14305 -0.25351,0.14761 0.51187,-0.2867 0.7678,-0.43005 3.45131,-2.01286 6.89952,-4.03105 10.35393,-6.03857 0.25464,-0.14798 1.02752,-0.57606 0.77304,-0.42782 -2.93945,1.71234 -5.88075,3.42155 -8.82813,5.1202 -2.45427,1.41446 4.80094,-2.68356 2.36205,-1.44464 4.62047,-2.75858 9.02925,-6.27768 14.2993,-7.62174 -9.32172,7.22164 -5.26416,6.61772 -11.5019,6.62073 -1.84584,2.4e-4 -3.70871,0.0586 -5.53897,-0.21514 -1.60325,-0.36263 -2.97021,-1.04777 -3.94778,-2.42505 -1.09467,-1.51488 -2.14026,-3.01416 -2.41702,-4.91891 -5.3e-4,-1.82058 -0.0203,-3.64082 -0.032,-5.46132 -0.002,-1.62608 -0.0126,-3.25707 0.166,-4.87573 0.24582,-1.73774 0.57759,-3.48575 1.87764,-4.76819 3.59915,-4.0439 8.61858,-6.73314 13.65398,-8.62925 1.54336,-0.28621 3.07201,-0.29994 4.50008,0.45284 1.47984,1.02251 2.08025,2.45229 1.95539,4.25739 -0.005,1.71855 0.0337,3.45488 -0.28179,5.15131 -1.39575,5.61748 -7.44753,6.96363 -12.35215,9.6197 -1.91734,0.57518 -3.83198,0.34905 -5.76721,-0.0896 -2.56969,-0.63971 -4.98635,-1.66926 -7.25325,-3.04729 0,0 9.4348,-6.08019 9.4348,-6.08019 z"
       inkscape:connector-curvature="0"
       style="stroke-width:0.26458332;fill:#000000" />
  </g>
</svg>
